# xmcd
#
# Track frame offsets:
#	150
#	26118
#	45047
#	48720
#	60445
#	77496
#	107484
#	117318
#	129006
#	150049
#	175078
#	179372
#	189665
#	203861
#
# Disc length: 2849 seconds
#
# Revision: 1
# Processed by: cddbd v1.5.1PL0 Copyright (c) Steve Scherf et al.
# Submitted via: Audio-CD-Archiv 4.00.510
#
DISCID=a30b1f0e
DTITLE=Moody Blues - This Is The Moody Blues Disk 1
DYEAR=1900
DGENRE=blues
TTITLE0=unbekannt - Question
TTITLE1=unbekannt - The Actor
TTITLE2=unbekannt - The Word
TTITLE3=unbekannt - Eyes Of A Child
TTITLE4=unbekannt - Dear Diary
TTITLE5=unbekannt - Legend Of Mind
TTITLE6=unbekannt - In The Beginning
TTITLE7=unbekannt - Lovely To See You
TTITLE8=unbekannt - Never Comes The Day
TTITLE9=unbekannt - Isn't Life Strange
TTITLE10=unbekannt - The Dream
TTITLE11=unbekannt - Have You Heard
TTITLE12=unbekannt - The Voyage
TTITLE13=unbekannt - Have You Heard
EXTD=
EXTT0=
EXTT1=
EXTT2=
EXTT3=
EXTT4=
EXTT5=
EXTT6=
EXTT7=
EXTT8=
EXTT9=
EXTT10=
EXTT11=
EXTT12=
EXTT13=
PLAYORDER=
